<?xml version="1.0" standalone="no"?><!DOCTYPE svg PUBLIC "-//W3C//DTD SVG 1.1//EN" "http://www.w3.org/Graphics/SVG/1.1/DTD/svg11.dtd"><svg t="1685891776747" class="icon" viewBox="0 0 1024 1024" version="1.1" xmlns="http://www.w3.org/2000/svg" p-id="9149" xmlns:xlink="http://www.w3.org/1999/xlink" width="200" height="200"><path d="M464 48m48 0l0 0q48 0 48 48l0 144q0 48-48 48l0 0q-48 0-48-48l0-144q0-48 48-48Z" fill="#F5F5F5" p-id="9150"></path><path d="M464 720m48 0l0 0q48 0 48 48l0 144q0 48-48 48l0 0q-48 0-48-48l0-144q0-48 48-48Z" fill="#BFBFBF" p-id="9151"></path><path d="M968 504a48 48 0 0 1-48 48h-144a48 48 0 1 1 0-96h144a48 48 0 0 1 48 48z" fill="#595959" p-id="9152"></path><path d="M296 504a48 48 0 0 1-48 48h-144a48 48 0 0 1 0-96h144a48 48 0 0 1 48 48z" fill="#E5E5E5" p-id="9153"></path><path d="M834.432 181.568a48 48 0 0 1 0 67.84l-101.76 101.888a48 48 0 1 1-67.968-67.904l101.824-101.824a48 48 0 0 1 67.904 0z" fill="#8C8C8C" p-id="9154"></path><path d="M359.296 656.704a48 48 0 0 1 0 67.904l-101.824 101.824a48 48 0 1 1-67.904-67.84l101.76-101.888a48 48 0 0 1 67.968 0z" fill="#D9D9D9" p-id="9155"></path><path d="M189.568 181.568a48 48 0 0 0 0 67.84l101.76 101.888a48 48 0 0 0 67.968-67.904L257.472 181.568a48 48 0 0 0-67.904 0z" fill="#F0F0F0" p-id="9156"></path><path d="M664.704 656.704a48 48 0 0 0 0 67.904l101.824 101.824a48 48 0 1 0 67.904-67.84l-101.76-101.888a48 48 0 0 0-67.968 0z" fill="#8C8C8C" p-id="9157"></path></svg>