<svg xmlns="http://www.w3.org/2000/svg" xmlns:xlink="http://www.w3.org/1999/xlink" width="400" height="400" viewBox="0 0 400 400" fill="none"><defs><rect id="path_0" x="0" y="0" width="400" height="400" /><linearGradient id="linear_0" x1="50%" y1="100%" x2="51%" y2="0%" gradientUnits="objectBoundingBox"><stop offset="0" stop-color="#0BA360" stop-opacity="1" /><stop offset="1" stop-color="#3CBA92" stop-opacity="1" /></linearGradient><linearGradient id="linear_1" x1="0.33798226210374205%" y1="50%" x2="100.0012819254034%" y2="50%" gradientUnits="objectBoundingBox"><stop offset="0" stop-color="#FDFCFB" stop-opacity="1" /><stop offset="1" stop-color="#E2D1C3" stop-opacity="1" /></linearGradient><filter id="filter_4" x="61" y="55" width="257" height="180" filterUnits="userSpaceOnUse" color-interpolation-filters="sRGB"><feFlood flood-opacity="0" result="BackgroundImageFix"/>
          <feColorMatrix in="SourceAlpha" type="matrix" values="0 0 0 0 0 0 0 0 0 0 0 0 0 0 0 0 0 0 127 0"/>
          <feOffset dx="2" dy="3"/>
          <feGaussianBlur stdDeviation="1.5"/>
          <feColorMatrix type="matrix" values="0 0 0 0 0 0 0 0 0 0 0 0 0 0 0 0 0 0 0.25 0"/>
          <feBlend mode="normal" in2="BackgroundImageFix" result="effect1_Shadow"/>
          <feBlend mode="normal" in="SourceGraphic" in2="effect1_Shadow" result="shape"/></filter></defs><g opacity="1" transform="translate(0 0)  rotate(0 200 200)"><rect fill="#FFFFFF" opacity="0" transform="translate(0 0)  rotate(0 200 200)" x="0" y="0" width="400" height="400" /><mask id="bg-mask-0" fill="white"><use xlink:href="#path_0"></use></mask><g mask="url(#bg-mask-0)" ><path id="多边形 1" fill-rule="evenodd" fill="url(#linear_0)" transform="translate(0 0)  rotate(0 200 200)" opacity="1" d="M184.75,8.8L42.04,91.2C32.61,96.64 26.79,106.71 26.79,117.6L26.79,282.4C26.79,293.29 32.61,303.36 42.04,308.8L184.76,391.2C194.19,396.65 205.82,396.65 215.25,391.2L357.96,308.8C367.39,303.36 373.21,293.29 373.21,282.4L373.21,117.6C373.21,106.71 367.39,96.64 357.96,91.2L215.24,8.8C205.81,3.35 194.18,3.35 184.75,8.8Z " /><g id="路径 1" filter="url(#filter_4)"><path id="路径 1" fill-rule="evenodd" fill="url(#linear_1)" transform="translate(64 58)  rotate(0 125.5 87)" opacity="1" d="M193.25 0C246.53 0 251 62.02 251 62.02C251 62.02 221.72 174 128.99 174C36.25 174 0 62.02 0 62.02L125.21 62.02C144.8 29.55 169.23 0 193.25 0Z" /><path  id="路径 1" style="stroke:#A6A6A6; stroke-width:1; stroke-opacity:1; stroke-dasharray:0 0" transform="translate(64 58)  rotate(0 125.5 87)" d="M125.21,62.02L0,62.02C0,62.02 36.25,174 128.99,174C221.72,174 251,62.02 251,62.02L84.65,145.45C84.65,145.45 101.34,101.57 125.21,62.02Z M251,62.02L125.21,62.02C101.34,101.57 84.65,145.45 84.65,145.45L251,62.02Z M251,62.02C251,62.02 246.53,0 193.25,0C169.23,0 144.8,29.55 125.21,62.02L251,62.02Z " /></g><g opacity="1" transform="translate(97 249)  rotate(0 115 35)"><text><tspan x="0" y="56.269999999999996" font-size="60" line-height="0" fill="#000000" opacity="1" font-family="EBGaramond-ExtraBold" letter-spacing="8" >Grdoc.</tspan></text></g><g opacity="1" transform="translate(73 79)  rotate(0 98.5 27)"><text><tspan x="0" y="31.977" font-size="14" line-height="23" fill="#383838" opacity="1" font-family="Merriweather-Bold" letter-spacing="0"  >a</tspan><tspan x="7.924" y="31.977" font-size="14" line-height="23" fill="#383838" opacity="1" font-family="Merriweather-Bold" letter-spacing="0"  > personal</tspan><tspan x="72.71600000000001" y="31.977" font-size="14" line-height="23" fill="#383838" opacity="1" font-family="Merriweather-Bold" letter-spacing="0" > blog</tspan></text></g></g></g></svg>